<svg xmlns="http://www.w3.org/2000/svg" viewBox="0 0 43.57 42.27"><defs><style>.cls-1{fill:#2a9b38;}.cls-2{fill:#fff;}</style></defs><g id="Warstwa_2" data-name="Warstwa 2"><g id="Warstwa_1-2" data-name="Warstwa 1"><path class="cls-1" d="M.18,17.46C2.61,2.35,29.63-5.9,40.52,4.94c8.74,8.63-2.21,37.33-21.35,37.33C10.81,42.27-1.65,28.89.18,17.46Z"/><path class="cls-2" d="M19.38,28.46s-.11.38-.38,1.08A11.9,11.9,0,0,1,17.71,32,4.3,4.3,0,0,1,14.85,34a3.78,3.78,0,0,1-3.5-1.89,3.07,3.07,0,0,1,0-2.59,8.91,8.91,0,0,1,1.29-2.32l1.56-2c3.24,2.16,3.46,1.29,3.46,1.29A34.86,34.86,0,0,1,14,23.6l-.43-.37-.27.54a20.63,20.63,0,0,1-1.62,2.37,10.84,10.84,0,0,0-1.56,2.91,4.33,4.33,0,0,0,.37,3.72,4.77,4.77,0,0,0,4.59,1.94,5.85,5.85,0,0,0,3.39-2.64,8.52,8.52,0,0,0,1-2.53,1.34,1.34,0,0,0-.06-1.08Zm-4.15-7a5.68,5.68,0,0,1,.11-2.37,21.11,21.11,0,0,1,3.29-8A16,16,0,0,1,23.8,6.67a15,15,0,0,1,4.75-1.89,6.06,6.06,0,0,1,2.91.11,3.24,3.24,0,0,1,1.51,1,4.24,4.24,0,0,1,1,1.73c.49,1.56.33,7.39-2.37,10.84-2.32,2.91-7.55,3.83-9.65,6.63a7.45,7.45,0,0,0-.6,1S16.9,22.85,17,22.74s1.94,0,4,1.62c.11.05.17.05.38-.22,2.59-3.18,6-3.56,8.47-6.31S33.3,9,32.92,8A2.38,2.38,0,0,0,31.3,6.24a4.65,4.65,0,0,0-2.43-.06A15.56,15.56,0,0,0,24.4,7.91,16.67,16.67,0,0,0,19.33,12c-1.78,2.15-3.24,6.79-3.45,7.54S15.42,20.83,15.23,21.5Z"/></g></g></svg>